# xmcd CD database file
#
# Track frame offsets:
#	182
#	17320
#	28232
#	39092
#	55735
#	73557
#	89677
#	101097
#	112260
#	124922
#	138830
#	150277
#
# Disc length: 2185 seconds
#
# Revision: 2
# Processed by: cddbd v1.5PL3 Copyright (c) Steve Scherf et al.
# Submitted via: CDex 1.51
#
DISCID=9708870c
DTITLE=Freddie King - Freddie King Is A Blues Master
DYEAR=1900
DGENRE=Blues
TTITLE0=Play It Cool
TTITLE1=That Will Never Do
TTITLE2=It's Too Late, She's Gone
TTITLE3=Blue Shadows
TTITLE4=Today I Sing The Blues
TTITLE5=Get Out Of My Life, Woman
TTITLE6=Hideaway
TTITLE7=Funky
TTITLE8=Hot Tomato
TTITLE9=Wide Open
TTITLE10=Sweet Thing
TTITLE11=Let Me Down Easy
EXTD=
EXTT0=
EXTT1=
EXTT2=
EXTT3=
EXTT4=
EXTT5=
EXTT6=
EXTT7=
EXTT8=
EXTT9=
EXTT10=
EXTT11=
PLAYORDER=
